PathFileType	4	(X/Y/Z)	7_coords_data.trc
DataRate	CameraRate	NumFrames	NumMarkers	Units	OrigDataRate	OrigDataStartFrame	OrigNumFrames
30.0	30.0	8	21	m	30.0	53	73
Frame#	Time	THUMB_TIP	THUMB_IP	THUMB_MCP	THUMB_CMC	INDEX_TIP	INDEX_DIP	INDEX_PIP	INDEX_MCP	MIDDLE_TIP	MIDDLE_DIP	MIDDLE_PIP	MIDDLE_MCP	RING_TIP	RING_DIP	RING_PIP	RING_MCP	PINKY_TIP	PINKY_DIP	PINKY_PIP	PINKY_MCP	WRIST
X1	Y1	Z1	X2	Y2	Z2	X3	Y3	Z3	X4	Y4	Z4	X5	Y5	Z5	X6	Y6	Z6	X7	Y7	Z7	X8	Y8	Z8	X9	Y9	Z9	X10	Y10	Z10	X11	Y11	Z11	X12	Y12	Z12	X13	Y13	Z13	X14	Y14	Z14	X15	Y15	Z15	X16	Y16	Z16	X17	Y17	Z17	X18	Y18	Z18	X19	Y19	Z19	X20	Y20	Z20	X21	Y21	Z21
51	1.7333333333333258	0.4553867885326217	0.019492246889624032	-0.16590182696516775	0.45351128415030606	0.009995643331329851	-0.14506203320014915	0.4434788395917968	-0.0016431557639202676	-0.11799344602237344	0.4569438786871045	-0.020854031909451787	-0.08005237381977393	0.521645761679236	0.037271570963528955	-0.18036826994603367	0.5127881710037717	0.04372153905978815	-0.16594811048147962	0.49883627698614397	0.04795965217977949	-0.14546902643206372	0.47412925683433316	0.033289053387201784	-0.11403699213128654	0.5460400855676619	0.02639079090954155	-0.17372885160696688	0.5389562032908188	0.03320580584529231	-0.15851786270705248	0.5238739763005988	0.040713815272518716	-0.13473623590281214	0.4954754278579997	0.03294379242546419	-0.1011312197250211	0.5575626750935767	0.017395268284227106	-0.1607936477019311	0.5515260747664503	0.02274228907816267	-0.14467009892631227	0.5402014953489025	0.02811455109649097	-0.12315097531910923	0.5135000147537694	0.022632842622617333	-0.09328958485859656	0.5722466284726777	-0.00920549024650641	-0.1369390157726345	0.5636306723668753	-0.003930685245775778	-0.12312084901335879	0.5506795503603358	0.0012889602533892042	-0.10744169856970359	0.5235090111536932	0.003358313605445362	-0.08381199211946105	0.4622830810018609	-0.023011742144276925	-0.051989820119430985
52	1.7666666666666588	0.44956485639632526	0.023048448633732344	-0.1642591814585571	0.4491394321939288	0.012788261634512965	-0.14370321937965974	0.4408414666306003	0.0004307071874400936	-0.11636726109030326	0.45596404632729526	-0.02013038234799247	-0.07978257603722355	0.5189821509754788	0.04343109479968443	-0.18096576434870332	0.5104563847203214	0.04862145930787298	-0.16585380133807642	0.4970797444376015	0.051162283336398495	-0.14472042628810433	0.47385783643287815	0.034047276397518145	-0.11339223419053435	0.5463369361003543	0.0338626061295485	-0.17422154999720374	0.5388995951380819	0.0389119965692688	-0.15849928503320554	0.5235322774517114	0.04381449355195666	-0.13422541800586724	0.4956204832656176	0.032891118367865735	-0.10109296351030167	0.5577291912489728	0.022502172363226935	-0.1619966898753326	0.5514676318429017	0.026383835367413955	-0.1455429496887925	0.5400435650869821	0.02974873582612758	-0.123671778648831	0.5137117111411208	0.021668761508036094	-0.09407332739217222	0.5723208485240474	-0.008417975347998485	-0.1387533288153659	0.5635839616745835	-0.0038229165065376547	-0.12476932930080731	0.5505897242989404	0.0007145994045889559	-0.10891458983963309	0.5234183829876338	0.0017855298257904995	-0.08521955300958306	0.4622830810018609	-0.023011742144276925	-0.051989820119430985
53	1.7999999999999918	0.4453212663660223	0.025639693466831592	-0.16281678021446894	0.4460652838060556	0.014788271266851671	-0.1425759038923649	0.4391328084337388	0.001864770880209754	-0.11512150674056632	0.4554112454813336	-0.019650394022669326	-0.0795968650606082	0.5179010785193361	0.04921063115233193	-0.1807002491895675	0.5094462511998801	0.05310933459213263	-0.16516589994389047	0.49633567949636614	0.05390232743218648	-0.14373009100271344	0.47423876675824783	0.03440081694019392	-0.11298836642560661	0.5481435112837019	0.041471737662822306	-0.1731229799752847	0.5400284635205721	0.04461257150999354	-0.1572396187898622	0.5239984651238898	0.04673234110138469	-0.13299182964772027	0.496186976712067	0.03263938638152031	-0.10099092871379478	0.5592311451404121	0.027672527779604494	-0.1615662935030916	0.552414021684625	0.0300623872587793	-0.14504916907241783	0.5405142210400896	0.031413828288129886	-0.12321460173609305	0.5141734755994294	0.020774208586820886	-0.09444509607051255	0.5734067658762079	-0.0077907936791123955	-0.13905009449478023	0.564302996470214	-0.003808182845093877	-0.12511236894334093	0.5510189456327562	0.00010293566864616466	-0.10933107735110043	0.5235185563374617	0.00044870707274402566	-0.08599671466978082	0.4622830810018609	-0.023011742144276925	-0.05198982011943093
54	1.8333333333333253	0.44273867019923174	0.027390389776043578	-0.1617706922737311	0.4443182392643631	0.01608292570026848	-0.1418296236528287	0.4383178968056457	0.0026994493066849756	-0.11437605466807721	0.455278105919494	-0.01939220543413145	-0.07953068054715412	0.5183284460794437	0.05405640223020369	-0.179738308720314	0.5097016872941379	0.05677392152540095	-0.16404773442424753	0.49654426406511587	0.05597023771784626	-0.14264104997032367	0.47511944807769124	0.03435718304739521	-0.11285029265002244	0.5509510419333062	0.04825575558431583	-0.17063251784820155	0.5420070657197985	0.04963402249077464	-0.1549447624374754	0.5250837419492789	0.049160214861996954	-0.13122164778342804	0.49701024247657455	0.03224802538826166	-0.10085712250209761	0.561706942678839	0.03232262988179313	-0.15969596920175516	0.5541317807598787	0.03337380085341124	-0.14337077512970925	0.5414837948728577	0.03294724517152248	-0.12192254717838485	0.514762278923857	0.020058871114268295	-0.09445308716280404	0.5753430263613738	-0.00721778613009616	-0.13793618019037396	0.565677120043353	-0.0037648754069856682	-0.12423772543848771	0.5518959548460546	-0.00036477369484133604	-0.10876740504258631	0.5237771667881559	-0.0005137357166707934	-0.08617990807034454	0.4622830810018609	-0.023011742144276925	-0.051989820119430985
55	1.8666666666666587	0.441814840987532	0.028405022431794102	-0.16120965562085343	0.44386062615037525	0.016752450574565758	-0.14151111932549332	0.43829794335223304	0.0029784232158482915	-0.11415873861725229	0.45548084409650036	-0.019352976674366307	-0.07957627917672111	0.5197701458643322	0.05764706475169934	-0.17835771457183658	0.5107918215594164	0.05940924477815013	-0.1627281139937624	0.4973323002810064	0.05729287038685693	-0.14160059451342805	0.4760907382992482	0.034049005591920145	-0.11292735109783547	0.5540100989486098	0.05368970532049622	-0.16735167328488382	0.5442342073991576	0.05362636284793543	-0.15210608598414266	0.5263625782898176	0.05103157141839998	-0.12923073942031116	0.4977936363097729	0.03186739819096551	-0.10072288191313028	0.5645950123442292	0.03614873979611133	-0.15688893168192042	0.5561878348872228	0.03611288408797886	-0.140941578247115	0.5426653955930189	0.03428551052260376	-0.12010928791726555	0.5153258202459484	0.01964768303232345	-0.09416699695816444	0.5776320762111491	-0.006733601903461839	-0.13581443264569965	0.5673423157082145	-0.0036620054306284455	-0.12248453677587684	0.5529779648724396	-0.0005714454031101601	-0.10748700755326551	0.524120946897859	-0.0009672439982455483	-0.08585371589233626	0.462283081001861	-0.023011742144276925	-0.05198982011943104
56	1.8999999999999915	0.4421526224620931	0.028448682561113325	-0.16128279301497933	0.444348916055452	0.016632194588648508	-0.14169843940174093	0.43883142294561406	0.002655556879302967	-0.11443984684591368	0.4558628714067361	-0.019532925219882924	-0.07969087527191954	0.5215256381501598	0.059863376557581116	-0.1770242518419508	0.5121175271378199	0.06094774716791673	-0.16158690791370556	0.49821938019949186	0.057921275886127166	-0.14085789886210953	0.47688875649837326	0.033569760643277324	-0.11318762073017652	0.5566751146213622	0.05763732982003522	-0.16407294889773455	0.5461732396628547	0.05650948150951296	-0.14936109719428386	0.5274326415972419	0.052373170526198276	-0.1274273226538073	0.49833302291507553	0.03157771734935333	-0.10065216176312036	0.5672261304251428	0.038876574555005816	-0.15393208277893622	0.5580805803805744	0.0381195068977086	-0.1384148097277661	0.5437355845644163	0.03537188477181519	-0.11824424586138621	0.5157310019031696	0.019564656816414283	-0.09373719119675133	0.579701053567018	-0.006459534122315591	-0.1333325613295347	0.5688643811742435	-0.0035841690117569547	-0.12039815732576775	0.5539830743658373	-0.0005872076787645231	-0.10589378041937736	0.5244525121673902	-0.0008870069248171353	-0.08518775550739299	0.4622830810018608	-0.023011742144276925	-0.05198982011943093
57	1.9333333333333247	0.44332145867036576	0.027591448336487634	-0.16188797493230406	0.44546238518308756	0.01580931937566621	-0.14227680793954967	0.4396877718580062	0.0018385843656784084	-0.11506849295632254	0.45633704594216196	-0.019874048512253273	-0.07983706882985808	0.5232391112950093	0.06089494247189642	-0.17598500313694904	0.5133761354486408	0.06156455564094454	-0.16081024364436436	0.4989920472720728	0.05799401332403076	-0.14050361743783146	0.47746111318512574	0.03299702297339757	-0.11357397865908259	0.5587902929842977	0.06001740638543529	-0.16134477786563134	0.5476878557649825	0.058239162006251455	-0.14714711134190073	0.5282142450221993	0.053169663781285736	-0.12606422201463746	0.49861703421389536	0.031388124294662534	-0.10065324857870844	0.5693694991751665	0.04033510461728018	-0.15139293841942475	0.5596229645723734	0.03922153026027231	-0.136267958571902	0.5445901989480701	0.03607708600859527	-0.11666417304377336	0.515945767705847	0.019771334041437827	-0.09324751560520866	0.5812675240476313	-0.006465251815331308	-0.1309627287806191	0.570029715514343	-0.0035704137656281665	-0.11837974137558915	0.554759041032455	-0.0004606198159876618	-0.10431035256658278	0.5247278841170073	-0.00040481422015803403	-0.08433511912476221	0.4622830810018608	-0.023011742144276925	-0.05198982011943093
58	1.966666666666658	0.44482472836843423	0.02589005863011462	-0.16291166986068917	0.44678973687901635	0.014358731366055477	-0.1431337217092123	0.4406109188472893	0.0006468625836044684	-0.11588254077656907	0.45678762986856214	-0.02030034515329493	-0.07997406672709984	0.5247977195157877	0.06085164619577488	-0.17540614896748136	0.5145212330688015	0.06135300567524726	-0.16050170449687956	0.49968685169091787	0.05756862807846552	-0.1405610563544425	0.4779013689630932	0.03233072494460165	-0.11406431916434012	0.5604052683298333	0.06078069808256226	-0.15957784325594082	0.5488525227736206	0.058723641772156054	-0.1457828227974846	0.5288080934402104	0.05332235101817928	-0.12532661442718945	0.4987588359656523	0.03121202973897319	-0.10074361747486488	0.570983570139661	0.04051995001549291	-0.14959574175459134	0.5608015967886744	0.03940339943422366	-0.13476062350500295	0.5452445981839917	0.03632317882799285	-0.1155597898139662	0.5160643792968547	0.02007857108572919	-0.09277057352645951	0.5823464921672256	-0.006659769706988672	-0.12890893330911557	0.5708473662030911	-0.00358685992555563	-0.11660741602318142	0.5553126024170423	-0.0002424499966847682	-0.1028852421669974	0.5249637497329238	0.0002485685853880204	-0.08340218561753021	0.4622830810018608	-0.023011742144276925	-0.05198982011943104
